<mxfile host="app.diagrams.net" modified="2023-06-19T13:19:07.469Z" agent="Mozilla/5.0 (Windows NT 10.0; Win64; x64) AppleWebKit/537.36 (KHTML, like Gecko) Chrome/114.0.0.0 Safari/537.36 Edg/114.0.1823.51" version="21.2.7" etag="gx4s2SeAOtW4SOMJJh55" type="github">
  <diagram name="第 1 页" id="cl8smlJIGhPHu0wMi_Uo">
    <mxGraphModel>
      <root>
        <mxCell id="0" />
        <mxCell id="1" parent="0" />
      </root>
    </mxGraphModel>
  </diagram>
</mxfile>
